<svg id="visual" viewBox="0 0 960 540" width="960" height="540" xmlns="http://www.w3.org/2000/svg" xmlns:xlink="http://www.w3.org/1999/xlink" version="1.1"><path d="M0 464L17.8 465.8C35.7 467.7 71.3 471.3 106.8 466.5C142.3 461.7 177.7 448.3 213.2 452.2C248.7 456 284.3 477 320 484.8C355.7 492.7 391.3 487.3 426.8 482C462.3 476.7 497.7 471.3 533.2 472.2C568.7 473 604.3 480 640 473.5C675.7 467 711.3 447 746.8 439C782.3 431 817.7 435 853.2 440.5C888.7 446 924.3 453 942.2 456.5L960 460L960 541L942.2 541C924.3 541 888.7 541 853.2 541C817.7 541 782.3 541 746.8 541C711.3 541 675.7 541 640 541C604.3 541 568.7 541 533.2 541C497.7 541 462.3 541 426.8 541C391.3 541 355.7 541 320 541C284.3 541 248.7 541 213.2 541C177.7 541 142.3 541 106.8 541C71.3 541 35.7 541 17.8 541L0 541Z" fill="#ececec" stroke-linecap="round" stroke-linejoin="miter"></path></svg>