<svg xmlns="http://www.w3.org/2000/svg" width="300" height="300" viewBox="0 0 300 300"><rect width="100%" height="100%" fill="none"/><path fill="#999999" d="M81.32 135.18h4.85v29.64h-2.82q-.66 0-1.1-.22-.44-.21-.85-.72l-15.48-19.77q.12 1.36.12 2.51v18.2h-4.86v-29.64h2.9q.34 0 .6.03t.45.12q.2.09.38.27.18.17.41.46l15.54 19.84q-.06-.71-.1-1.41t-.04-1.29zm19.96 8.28q2.34 0 4.26.76 1.91.76 3.28 2.15 1.36 1.39 2.1 3.4t.74 4.49q0 2.5-.74 4.51t-2.1 3.43q-1.37 1.41-3.28 2.17-1.92.76-4.26.76-2.35 0-4.28-.76t-3.29-2.17q-1.37-1.42-2.11-3.43-.75-2.01-.75-4.51 0-2.48.75-4.49.74-2.01 2.11-3.4 1.36-1.39 3.29-2.15t4.28-.76m0 17.77q2.63 0 3.89-1.76t1.26-5.17q0-3.4-1.26-5.18-1.26-1.79-3.89-1.79-2.66 0-3.94 1.8-1.28 1.79-1.28 5.17 0 3.39 1.28 5.16t3.94 1.77m31.25-7.6h9.43l-3.61-9.86q-.27-.66-.56-1.56-.28-.9-.57-1.95-.27 1.05-.55 1.96-.29.91-.56 1.59zm7.52-18.45 11.64 29.64h-4.26q-.72 0-1.17-.36t-.68-.89l-2.21-6.05h-12.28l-2.21 6.05q-.17.47-.64.86t-1.17.39h-4.3l11.66-29.64zM183.04 150q0 3.26-1.08 6.04-1.08 2.77-3.04 4.8-1.97 2.03-4.74 3.17t-6.15 1.14q-3.36 0-6.13-1.14t-4.74-3.17q-1.98-2.03-3.07-4.8Q153 153.26 153 150t1.09-6.04 3.07-4.81q1.97-2.03 4.74-3.16 2.77-1.14 6.13-1.14 2.26 0 4.24.52 1.99.52 3.65 1.48 1.66.95 2.99 2.31 1.32 1.37 2.24 3.05t1.41 3.65q.48 1.97.48 4.14m-5.64 0q0-2.44-.66-4.38-.65-1.94-1.86-3.29t-2.94-2.07q-1.74-.72-3.91-.72t-3.9.72q-1.74.72-2.96 2.07t-1.87 3.29q-.66 1.94-.66 4.38t.66 4.38q.65 1.93 1.87 3.28 1.22 1.34 2.96 2.06 1.73.71 3.9.71t3.91-.71q1.73-.72 2.94-2.06 1.21-1.35 1.86-3.28.66-1.94.66-4.38m31.2-14.82v4.53h-8.94v25.11h-5.51v-25.11h-8.94v-4.53zM238.82 150q0 3.26-1.09 5.98-1.09 2.73-3.05 4.7-1.97 1.97-4.74 3.05-2.77 1.09-6.15 1.09H212.5v-29.64h11.29q3.38 0 6.15 1.09 2.77 1.1 4.74 3.06 1.96 1.96 3.05 4.68 1.09 2.73 1.09 5.99m-5.66 0q0-2.44-.65-4.38-.64-1.94-1.86-3.28t-2.95-2.06q-1.74-.72-3.91-.72h-5.76v20.87h5.76q2.17 0 3.91-.71 1.73-.72 2.95-2.06 1.22-1.35 1.86-3.28.65-1.94.65-4.38"/></svg>